<svg width="24" height="24" viewBox="0 0 24 24" fill="none" xmlns="http://www.w3.org/2000/svg">
<g id="Logo / Placeholder" clip-path="url(#clip0_4079_2220)">
<path id="Vector" d="M7.66669 18.5V13.5C7.66669 13.0416 7.82988 12.6493 8.15627 12.3229C8.48266 11.9965 8.87502 11.8333 9.33335 11.8333C9.79169 11.8333 10.184 11.9965 10.5104 12.3229C10.8368 12.6493 11 13.0416 11 13.5V18.5C11 18.9583 10.8368 19.3507 10.5104 19.677C10.184 20.0034 9.79169 20.1666 9.33335 20.1666C8.87502 20.1666 8.48266 20.0034 8.15627 19.677C7.82988 19.3507 7.66669 18.9583 7.66669 18.5ZM13.5 21.8333C13.0417 21.8333 12.6493 21.6701 12.3229 21.3437C11.9965 21.0173 11.8334 20.625 11.8334 20.1666V11.8333C11.8334 11.375 11.9965 10.9826 12.3229 10.6562C12.6493 10.3298 13.0417 10.1666 13.5 10.1666H18.5C18.9584 10.1666 19.3507 10.3298 19.6771 10.6562C20.0035 10.9826 20.1667 11.375 20.1667 11.8333V20.1666C20.1667 20.625 20.0035 21.0173 19.6771 21.3437C19.3507 21.6701 18.9584 21.8333 18.5 21.8333H13.5ZM21 18.5V13.5C21 13.0416 21.1632 12.6493 21.4896 12.3229C21.816 11.9965 22.2084 11.8333 22.6667 11.8333C23.125 11.8333 23.5174 11.9965 23.8438 12.3229C24.1702 12.6493 24.3334 13.0416 24.3334 13.5V18.5C24.3334 18.9583 24.1702 19.3507 23.8438 19.677C23.5174 20.0034 23.125 20.1666 22.6667 20.1666C22.2084 20.1666 21.816 20.0034 21.4896 19.677C21.1632 19.3507 21 18.9583 21 18.5ZM13.5 20.1666H18.5V11.8333H13.5V20.1666Z" fill="#55C0E1"></path>
</g>
<defs>
<clipPath id="clip0_4079_2220">
<rect width="24" height="24" fill="white"/>
</clipPath>
</defs>
</svg>
