<svg width="138" height="32" viewBox="0 0 138 32" fill="none" xmlns="http://www.w3.org/2000/svg">
<g clip-path="url(#clip0_2732_21894)">
<path fill-rule="evenodd" clip-rule="evenodd" d="M16 32C19.6974 32 23.1019 30.7458 25.8113 28.6397L23.6694 26.4978C21.5195 28.0711 18.8682 29 16 29C8.8203 29 3 23.1797 3 16C3 13.1318 3.92887 10.4805 5.5022 8.33063L3.36028 6.18871C1.25416 8.89808 0 12.3026 0 16C0 24.8366 7.16344 32 16 32ZM32 16C32 19.6974 30.7458 23.1019 28.6397 25.8113L26.4978 23.6694C28.0711 21.5195 29 18.8682 29 16C29 8.8203 23.1797 3 16 3C13.1318 3 10.4805 3.92887 8.33063 5.5022L6.18871 3.36029C8.89808 1.25416 12.3026 0 16 0C24.8366 0 32 7.16344 32 16ZM26 16C26 21.5228 21.5228 26 16 26C10.4772 26 6 21.5228 6 16C6 10.4772 10.4772 6 16 6C21.5228 6 26 10.4772 26 16ZM23 16C23 19.866 19.866 23 16 23C12.134 23 9 19.866 9 16C9 12.134 12.134 9 16 9C19.866 9 23 12.134 23 16Z" fill="#0099CC"/>
<path fill-rule="evenodd" clip-rule="evenodd" d="M46.064 16.036C46.064 19.654 48.8296 22.552 52.5631 22.552C56.2966 22.552 59.0967 19.618 59.0967 16V15.964C59.0967 12.346 56.3312 9.448 52.5977 9.448C48.8642 9.448 46.064 12.382 46.064 16V16.036ZM55.6744 16.036C55.6744 17.854 54.4471 19.402 52.5977 19.402C50.7655 19.402 49.5037 17.818 49.5037 16V15.964C49.5037 14.146 50.7309 12.598 52.5631 12.598C54.4126 12.598 55.6744 14.182 55.6744 16V16.036ZM66.534 22.552C62.7659 22.552 59.9485 19.852 59.9485 16.036V16C59.9485 12.328 62.714 9.448 66.4648 9.448C68.5909 9.448 70.0946 10.132 71.3737 11.284L69.4032 13.75C68.539 12.994 67.6748 12.562 66.4821 12.562C64.7364 12.562 63.3881 14.092 63.3881 16.018V16.054C63.3881 18.088 64.7536 19.546 66.6723 19.546C67.4846 19.546 68.1069 19.366 68.6081 19.024V17.494H66.2228V14.938H71.7885V20.608C70.5095 21.706 68.7291 22.552 66.534 22.552ZM72.7526 16.036C72.7526 19.654 75.5182 22.552 79.2517 22.552C82.9852 22.552 85.7854 19.618 85.7854 16V15.964C85.7854 12.346 83.0198 9.448 79.2863 9.448C75.5528 9.448 72.7526 12.382 72.7526 16V16.036ZM82.363 16.036C82.363 17.854 81.1357 19.402 79.2863 19.402C77.4541 19.402 76.1923 17.818 76.1923 16V15.964C76.1923 14.146 77.4195 12.598 79.2517 12.598C81.1012 12.598 82.363 14.182 82.363 16V16.036ZM96.04 16.63H89.0569V22.3H87.6914V9.70001H89.0569V15.298H96.04V9.70001H97.4055V22.3H96.04V16.63ZM109.09 10.996V9.70001H100.344V22.3H109.176V21.004H101.709V16.594H108.312V15.298H101.709V10.996H109.09ZM121.451 22.3H119.774L116.265 17.404H112.808V22.3H111.443V9.70001H116.646C117.314 9.70001 117.913 9.79001 118.443 9.97001C118.985 10.15 119.446 10.408 119.826 10.744C120.206 11.068 120.5 11.464 120.708 11.932C120.915 12.388 121.019 12.898 121.019 13.462C121.019 13.99 120.938 14.464 120.777 14.884C120.615 15.292 120.385 15.652 120.085 15.964C119.797 16.264 119.452 16.516 119.048 16.72C118.645 16.924 118.207 17.068 117.735 17.152L121.451 22.3ZM119.636 13.516C119.636 12.724 119.365 12.112 118.824 11.68C118.282 11.236 117.521 11.014 116.542 11.014H112.808V16.126H116.525C116.974 16.126 117.389 16.066 117.769 15.946C118.149 15.826 118.478 15.658 118.754 15.442C119.031 15.214 119.244 14.938 119.394 14.614C119.555 14.29 119.636 13.924 119.636 13.516ZM132.2 9.70001V10.996H124.819V15.298H131.422V16.594H124.819V21.004H132.286V22.3H123.454V9.70001H132.2ZM37 22.3V9.70001H40.3532V19.24H46.2128V22.3H37ZM134.752 10.0962V11.6381H134.281V10.0962H133.725V9.698H135.317V10.0962H134.752ZM137.144 10.3787V11.6381H137.571V9.698H137.055L136.549 10.8509L136.042 9.698H135.521V11.6381H135.944V10.3787L136.389 11.4436H136.695L137.144 10.3787Z" fill="white"/>
</g>
<defs>
<clipPath id="clip0_2732_21894">
<rect width="137.571" height="32" fill="white"/>
</clipPath>
</defs>
</svg>
