<svg width="24" height="24" viewBox="0 0 24 24" fill="none" xmlns="http://www.w3.org/2000/svg">
<g id="Logo / Placeholder" clip-path="url(#clip0_4079_2220)">
<path id="Union" fill-rule="evenodd" clip-rule="evenodd" d="M12 24C14.7731 24 17.3264 23.0594 19.3585 21.4798L17.752 19.8734C16.1396 21.0533 14.1512 21.75 12 21.75C6.61522 21.75 2.25 17.3848 2.25 12C2.25 9.84884 2.94665 7.8604 4.12665 6.24797L2.52021 4.64153C0.940622 6.67356 0 9.22693 0 12C0 18.6274 5.37258 24 12 24ZM24 12C24 14.7731 23.0594 17.3264 21.4798 19.3585L19.8734 17.752C21.0533 16.1396 21.75 14.1512 21.75 12C21.75 6.61522 17.3848 2.25 12 2.25C9.84884 2.25 7.8604 2.94665 6.24797 4.12665L4.64153 2.52021C6.67356 0.940622 9.22693 0 12 0C18.6274 0 24 5.37258 24 12ZM19.5 12C19.5 16.1421 16.1421 19.5 12 19.5C7.85786 19.5 4.5 16.1421 4.5 12C4.5 7.85786 7.85786 4.5 12 4.5C16.1421 4.5 19.5 7.85786 19.5 12ZM17.25 12C17.25 14.8995 14.8995 17.25 12 17.25C9.1005 17.25 6.75 14.8995 6.75 12C6.75 9.1005 9.1005 6.75 12 6.75C14.8995 6.75 17.25 9.1005 17.25 12Z" fill="#0099CC"/>
</g>
<defs>
<clipPath id="clip0_4079_2220">
<rect width="24" height="24" fill="white"/>
</clipPath>
</defs>
</svg>
