<svg width="24" height="24" viewBox="0 0 24 24" fill="none" xmlns="http://www.w3.org/2000/svg">
<g id="Logo / Placeholder" clip-path="url(#clip0_4079_2220)">
<path id="Vector" d="M10.1667 23.5C9.70833 23.5 9.31597 23.3368 8.98958 23.0104C8.66319 22.684 8.5 22.2917 8.5 21.8333V10.1667C8.5 9.70833 8.66319 9.31597 8.98958 8.98958C9.31597 8.66319 9.70833 8.5 10.1667 8.5H21.8333C22.2917 8.5 22.684 8.66319 23.0104 8.98958C23.3368 9.31597 23.5 9.70833 23.5 10.1667V21.8333C23.5 22.2917 23.3368 22.684 23.0104 23.0104C22.684 23.3368 22.2917 23.5 21.8333 23.5H10.1667ZM15.1667 18.5H10.1667V21.8333H15.1667V18.5ZM16.8333 18.5V21.8333H21.8333V18.5H16.8333ZM15.1667 16.8333V13.5H10.1667V16.8333H15.1667ZM16.8333 16.8333H21.8333V13.5H16.8333V16.8333ZM10.1667 11.8333H21.8333V10.1667H10.1667V11.8333Z" fill="white" fill-opacity="0.56"></path>
</g>
<defs>
<clipPath id="clip0_4079_2220">
<rect width="24" height="24" fill="white"/>
</clipPath>
</defs>
</svg>