<svg width="24" height="24" viewBox="0 0 24 24" fill="none" xmlns="http://www.w3.org/2000/svg">
<g id="Logo / BlastIQ" clip-path="url(#clip0_4079_2236)">
<g id="Vector">
<path d="M13.214 0V2.34857C17.9214 2.94857 21.5728 6.97714 21.5728 11.8457C21.5728 16.7143 17.9214 20.7429 13.214 21.3429V23.6914C19.2105 23.0777 23.9042 18 23.9042 11.8457C23.9042 5.69143 19.2105 0.613714 13.214 0Z" fill="#FF7F2F"/>
<path d="M16.9648 13.0526C16.5157 14.904 15.0619 16.3611 13.2105 16.8137V19.1966C16.3477 18.6789 18.8299 16.1931 19.3442 13.0526H16.9614H16.9648Z" fill="#B739AE"/>
<path d="M7.02881 10.6183C7.48481 8.78057 8.9351 7.33371 10.7762 6.88114V4.49828C7.64595 5.016 5.1671 7.488 4.64595 10.6183H7.02881Z" fill="#B6BD00"/>
<path d="M10.7762 16.8137C8.92823 16.3611 7.47452 14.904 7.02195 13.0526H4.63909C5.15338 16.1931 7.63566 18.6789 10.7728 19.1966V16.8137H10.7762Z" fill="#0099CC"/>
<path d="M10.7762 21.3429C6.06879 20.7429 2.41737 16.7143 2.41737 11.8457C2.41737 6.97714 6.06879 2.952 10.7762 2.34857V0C4.77965 0.613714 0.0859375 5.69143 0.0859375 11.8457C0.0859375 18 4.77965 23.0811 10.7762 23.6914V21.3429Z" fill="#D60057"/>
<path d="M13.214 6.87772C15.0551 7.33029 16.5054 8.77714 16.9614 10.6149H19.3442C18.8231 7.48457 16.3442 5.01257 13.214 4.49486V6.87772Z" fill="#FFC627"/>
</g>
</g>
<defs>
<clipPath id="clip0_4079_2236">
<rect width="24" height="24" fill="white"/>
</clipPath>
</defs>
</svg>
